<svg width="31" height="21" viewBox="0 0 31 21" fill="none" xmlns="http://www.w3.org/2000/svg">
<path d="M30.319 7.845V12.36C30.319 12.583 30.012 12.76 29.632 12.76H0.686981C0.307981 12.76 0 12.579 0 12.36V7.845C0 7.622 0.306981 7.445 0.686981 7.445H29.63C30.009 7.445 30.317 7.626 30.317 7.845H30.319ZM29.63 0H0.686981C0.307981 0 0 0.181002 0 0.400002V4.915C0 5.138 0.306981 5.315 0.686981 5.315H29.63C30.009 5.315 30.317 5.134 30.317 4.915V0.404007C30.317 0.181007 30.01 0.00400543 29.63 0.00400543V0ZM29.63 14.882H0.686981C0.307981 14.882 0 15.063 0 15.282V19.797C0 20.02 0.306981 20.197 0.686981 20.197H29.63C30.009 20.197 30.317 20.016 30.317 19.797V15.286C30.317 15.063 30.01 14.886 29.63 14.886V14.882Z" fill="#FEE969"/>
</svg>
