<svg width="25" height="20" viewBox="0 0 25 20" fill="none" xmlns="http://www.w3.org/2000/svg">
<path fill-rule="evenodd" clip-rule="evenodd" d="M17.7751 12.2004L19.3171 10.6594C19.7612 10.23 20.3562 9.99231 20.9739 9.99751C21.5916 10.0027 22.1825 10.2504 22.6193 10.6872C23.0561 11.124 23.3038 11.7149 23.309 12.3326C23.3142 12.9503 23.0765 13.5453 22.6471 13.9894L17.7761 18.8604L12.9041 13.9884C12.4624 13.5466 12.2142 12.9476 12.2142 12.3229C12.2142 11.6982 12.4624 11.0991 12.9041 10.6574C13.3458 10.2156 13.9449 9.96748 14.5696 9.96748C15.1943 9.96748 15.7934 10.2156 16.2351 10.6574L17.7751 12.2004ZM20.7751 11.0604C20.6894 11.0531 20.6044 11.0801 20.5386 11.1355C20.4729 11.1909 20.4319 11.2702 20.4246 11.3559C20.4173 11.4415 20.4443 11.5266 20.4998 11.5923C20.5552 11.658 20.6344 11.6991 20.7201 11.7064C20.8403 11.7164 20.9566 11.7539 21.06 11.8161C21.1634 11.8783 21.2509 11.9635 21.316 12.0651C21.3811 12.1666 21.4219 12.2819 21.4353 12.4017C21.4487 12.5216 21.4342 12.643 21.3931 12.7564C21.3826 12.7991 21.3811 12.8436 21.3884 12.887C21.3957 12.9305 21.4117 12.9719 21.4356 13.0089C21.4595 13.0459 21.4907 13.0776 21.5272 13.1022C21.5638 13.1267 21.605 13.1436 21.6483 13.1517C21.6915 13.1598 21.736 13.159 21.779 13.1493C21.822 13.1396 21.8625 13.1213 21.8981 13.0955C21.9338 13.0696 21.9637 13.0368 21.9863 12.9989C22.0088 12.9611 22.0234 12.919 22.0291 12.8754C22.0925 12.6724 22.1088 12.4577 22.0768 12.2475C22.0449 12.0372 21.9655 11.8371 21.8446 11.6621C21.7237 11.4872 21.5646 11.3421 21.3793 11.2378C21.194 11.1335 20.9873 11.0729 20.7751 11.0604Z" fill="#FEE969"/>
<path fill-rule="evenodd" clip-rule="evenodd" d="M1.50813 1.50937C1.03 1.98742 0.650719 2.55497 0.391953 3.17961C0.133186 3.80425 0 4.47375 0 5.14987C0 5.82599 0.133186 6.49549 0.391953 7.12013C0.650719 7.74477 1.03 8.31233 1.50813 8.79037L12.1571 19.4394L14.7961 16.8014L12.4431 14.4484C11.8798 13.8852 11.5633 13.1213 11.5632 12.3247C11.5631 11.5282 11.8794 10.7642 12.4426 10.2009C13.0058 9.63755 13.7697 9.32103 14.5663 9.32094C15.3628 9.32084 16.1268 9.63718 16.6901 10.2004L17.7731 11.2834L18.8561 10.2014C19.2687 9.78895 19.7923 9.50551 20.3632 9.38565C20.9341 9.26579 21.5276 9.31468 22.0711 9.52637L22.8071 8.79037C23.7587 7.82194 24.2893 6.51685 24.2833 5.15916C24.2774 3.80148 23.7355 2.50107 22.7755 1.54097C21.8155 0.580865 20.5152 0.0387749 19.1575 0.0326691C17.7998 0.0265633 16.4947 0.55693 15.5261 1.50836L12.1571 4.87737L8.78712 1.50836C8.30931 1.03017 7.74195 0.650843 7.11747 0.392029C6.49298 0.133214 5.82362 0 5.14763 0C4.47164 0 3.80226 0.133214 3.17778 0.392029C2.5533 0.650843 1.98594 1.03017 1.50813 1.50836V1.50937ZM6.25813 2.50937C6.24613 2.50937 2.15813 2.22136 2.37613 6.36836C2.38051 6.45456 2.35046 6.53897 2.2926 6.60301C2.23475 6.66706 2.15382 6.70549 2.06763 6.70987C1.98143 6.71425 1.89703 6.6842 1.83298 6.62634C1.76894 6.56849 1.7305 6.48756 1.72613 6.40137C1.47313 1.52637 6.27813 1.86336 6.29213 1.86436C6.33448 1.86686 6.37592 1.87768 6.41409 1.89619C6.45227 1.91471 6.48642 1.94055 6.5146 1.97226C6.54279 2.00397 6.56444 2.04093 6.57835 2.08101C6.59225 2.12109 6.59812 2.16352 6.59563 2.20587C6.59313 2.24822 6.58232 2.28966 6.5638 2.32784C6.54529 2.36601 6.51944 2.40016 6.48773 2.42834C6.45602 2.45653 6.41907 2.47819 6.37899 2.4921C6.33891 2.506 6.29648 2.51186 6.25413 2.50937H6.25813Z" fill="#FEE969"/>
</svg>
