<?xml version="1.0" encoding="utf-8"?>
<!-- Generator: Adobe Illustrator 25.0.1, SVG Export Plug-In . SVG Version: 6.00 Build 0)  -->
<svg version="1.1" id="Layer_1" xmlns="http://www.w3.org/2000/svg" xmlns:xlink="http://www.w3.org/1999/xlink" x="0px" y="0px"
	 viewBox="0 0 1200 1200" style="enable-background:new 0 0 1200 1200;" xml:space="preserve">
<style type="text/css">
	.st0{fill:#FFFFFF;}
</style>
<path class="st0" d="M960.3,101c16-21.1,11.9-51.2-9.2-67.3c-21.1-16-51.2-11.9-67.3,9.2L645.7,356.6h-91.5L316.1,43
	c-16-21.1-46.1-25.2-67.3-9.2c-21.1,16-25.2,46.1-9.2,67.3L492,433.3v241.9l-147.1,437.5c-8.4,25.1,5.1,52.3,30.2,60.8
	c25,8.4,52.3-5,60.8-30.2L571.2,741h57.7l135.3,402.3c8.5,25.2,35.8,38.6,60.8,30.2c25.1-8.4,38.6-35.7,30.2-60.8L708,675.2V433.3
	L960.3,101z"/>
<path class="st0" d="M697.5,186.5c0,53.8-43.7,97.5-97.5,97.5s-97.5-43.7-97.5-97.5S546.2,89,600,89S697.5,132.7,697.5,186.5"/>
</svg>
