<?xml version="1.0" encoding="utf-8"?>
<!-- Generator: Adobe Illustrator 25.0.1, SVG Export Plug-In . SVG Version: 6.00 Build 0)  -->
<svg version="1.1" id="Layer_1" xmlns="http://www.w3.org/2000/svg" xmlns:xlink="http://www.w3.org/1999/xlink" x="0px" y="0px"
	 viewBox="0 0 1200 1200" style="enable-background:new 0 0 1200 1200;" xml:space="preserve">
<style type="text/css">
	.st0{fill:#FFFFFF;}
</style>
<path class="st0" d="M599.7,574.5c60.3,0,109.3-49,109.3-109.3c0-60.2-49-109.3-109.3-109.3c-60.3,0-109.3,49-109.3,109.3
	C490.4,525.5,539.4,574.5,599.7,574.5L599.7,574.5z"/>
<path class="st0" d="M649.3,584h-99.1c-84.3,0-153,68.6-153,153c0,69.1,155,74.5,202.5,74.5c47.5,0,202.5-5.4,202.5-74.5
	C802.2,652.6,733.6,584,649.3,584L649.3,584z"/>
<path class="st0" d="M1053.4,139.9c0,27.4-22.2,49.6-49.6,49.6c-27.4,0-49.6-22.2-49.6-49.6s22.2-49.6,49.6-49.6
	C1031.2,90.3,1053.4,112.6,1053.4,139.9"/>
<path class="st0" d="M1003.8,297c21.6,0,91.9-2.4,91.9-33.8c0-38.3-31.1-69.4-69.4-69.4h-45c-38.3,0-69.4,31.2-69.4,69.4
	C911.9,294.5,982.2,297,1003.8,297L1003.8,297z"/>
<path class="st0" d="M246.3,139.9c0,27.4-22.2,49.6-49.6,49.6c-27.4,0-49.6-22.2-49.6-49.6s22.2-49.6,49.6-49.6
	C224.1,90.3,246.3,112.6,246.3,139.9"/>
<path class="st0" d="M219.2,193.8h-45c-38.3,0-69.4,31.2-69.4,69.4c0,31.3,70.3,33.8,91.9,33.8s91.9-2.4,91.9-33.8
	C288.6,224.9,257.5,193.8,219.2,193.8L219.2,193.8z"/>
<path class="st0" d="M1003.3,832.1c-40.6,0-77.8,14.7-106.6,39l-59.1-58.5c50.2-56.4,81-130.4,81-211.7
	c0-83.2-32.3-158.8-84.6-215.6l58.6-60.7c29.4,26.8,68.4,43.2,111.2,43.2c91.4,0,165.8-74.4,165.8-165.8
	c0-91.4-74.4-165.7-165.8-165.7c-91.4,0-165.8,74.3-165.8,165.7c0,34.9,10.9,67.3,29.4,94l-60.7,62.8
	c-55.8-47.8-128-76.9-207.1-76.9c-82.4,0-157.3,31.7-214,83.1l-59.9-59.3c22.9-28.4,36.6-64.5,36.6-103.7
	c0-91.4-74.4-165.7-165.8-165.7C105.4,36.4,31,110.7,31,202.1c0,91.4,74.4,165.8,165.8,165.8c38.5,0,73.9-13.3,102.1-35.4l60.4,59.8
	c-48.7,56-78.4,128.9-78.4,208.7c0,82.9,32,158.2,84,214.9l-57.5,59.4c-29.4-26.7-68.4-43.2-111.2-43.2
	c-91.4,0-165.8,74.4-165.8,165.8c0,91.4,74.4,165.7,165.8,165.7c91.4,0,165.8-74.3,165.8-165.7c0-34.9-10.9-67.3-29.4-94.1
	l59.4-61.5c55.9,48.2,128.4,77.5,207.8,77.5c81,0,154.7-30.6,211-80.5l60,59.4c-20.7,27.7-33.2,61.9-33.2,99.1
	c0,91.4,74.4,165.7,165.8,165.7c91.4,0,165.7-74.3,165.7-165.7C1169.1,906.5,1094.7,832.1,1003.3,832.1L1003.3,832.1z M1003.9,74.3
	c70.5,0,127.9,57.4,127.9,127.9c0,70.5-57.4,127.9-127.9,127.9C933.4,330,876,272.7,876,202.2C876,131.7,933.4,74.3,1003.9,74.3
	L1003.9,74.3z M68.9,202.2c0-70.5,57.4-127.9,127.9-127.9c70.5,0,127.9,57.4,127.9,127.9c0,70.5-57.4,127.9-127.9,127.9
	C126.3,330,68.9,272.7,68.9,202.2L68.9,202.2z M196.2,1125.7c-70.5,0-127.9-57.4-127.9-127.8c0-70.5,57.4-127.9,127.9-127.9
	c70.5,0,127.9,57.3,127.9,127.9C324.1,1068.3,266.7,1125.7,196.2,1125.7z M318.7,601c0-155,126.1-281,281-281s281,126,281,281
	c0,154.9-126,281-281,281S318.7,755.9,318.7,601L318.7,601z M1003.3,1125.7c-70.5,0-127.9-57.4-127.9-127.8
	c0-70.5,57.4-127.9,127.9-127.9s127.9,57.3,127.9,127.9C1131.2,1068.3,1073.8,1125.7,1003.3,1125.7z"/>
<path class="st0" d="M1052.9,935.7c0,27.4-22.2,49.6-49.6,49.6c-27.4,0-49.6-22.2-49.6-49.6c0-27.4,22.2-49.6,49.6-49.6
	C1030.7,886.1,1052.9,908.3,1052.9,935.7"/>
<path class="st0" d="M1025.8,989.5h-45c-38.3,0-69.4,31.2-69.4,69.4c0,31.3,70.3,33.8,91.9,33.8c21.6,0,91.9-2.4,91.9-33.8
	C1095.2,1020.6,1064.1,989.5,1025.8,989.5L1025.8,989.5z"/>
<path class="st0" d="M245.7,935.7c0,27.4-22.2,49.6-49.6,49.6c-27.4,0-49.6-22.2-49.6-49.6c0-27.4,22.2-49.6,49.6-49.6
	C223.5,886.1,245.7,908.3,245.7,935.7"/>
<path class="st0" d="M218.6,989.5h-45c-38.3,0-69.4,31.2-69.4,69.4c0,31.3,70.3,33.8,91.9,33.8c21.6,0,91.9-2.4,91.9-33.8
	C288,1020.6,256.9,989.5,218.6,989.5L218.6,989.5z"/>
</svg>
