<?xml version="1.0" encoding="utf-8"?>
<!-- Generator: Adobe Illustrator 25.0.1, SVG Export Plug-In . SVG Version: 6.00 Build 0)  -->
<svg version="1.1" id="Layer_1" xmlns="http://www.w3.org/2000/svg" xmlns:xlink="http://www.w3.org/1999/xlink" x="0px" y="0px"
	 viewBox="0 0 1200 1200" style="enable-background:new 0 0 1200 1200;" xml:space="preserve">
<style type="text/css">
	.st0{fill-rule:evenodd;clip-rule:evenodd;fill:#FFFFFF;}
</style>
<path class="st0" d="M600,290.2L600,290.2c20.7,0,37.5,16.8,37.5,37.5V455c0,2,0.8,3.9,2.2,5.3s3.4,2.2,5.3,2.2h135.2
	c20.7,0,37.5,16.8,37.5,37.5v0c0,20.7-16.8,37.5-37.5,37.5H645.1c-2,0-3.9,0.8-5.3,2.2c-1.4,1.4-2.2,3.4-2.2,5.3v327.2
	c0,20.7-16.8,37.5-37.5,37.5h0c-20.7,0-37.5-16.8-37.5-37.5V545.2c0-2-0.8-3.9-2.2-5.3c-1.4-1.4-3.4-2.2-5.3-2.2H419.8
	c-20.7,0-37.5-16.8-37.5-37.5v0c0-20.7,16.8-37.5,37.5-37.5h135.2c2,0,3.9-0.8,5.3-2.2c1.4-1.4,2.2-3.4,2.2-5.3V327.7
	C562.5,307,579.3,290.2,600,290.2z"/>
</svg>
